<?xml version="1.0" encoding="utf-8"?>
<!-- Generator: Adobe Illustrator 27.8.1, SVG Export Plug-In . SVG Version: 6.00 Build 0)  -->
<svg version="1.1" id="圖層_1" xmlns="http://www.w3.org/2000/svg" xmlns:xlink="http://www.w3.org/1999/xlink" x="0px" y="0px"
	 viewBox="0 0 360 360" style="enable-background:new 0 0 360 360;" xml:space="preserve">
<style type="text/css">
	.st0{fill:none;}
	.st1{fill:#A6A683;}
</style>
<g>
	<circle class="st0" cx="180" cy="180" r="180"/>
	<circle class="st0" cx="180" cy="180" r="122.1"/>
	<g>
		<path class="st1" d="M180,20.8l3.1-2.2L180,0l-3.1,18.6L180,20.8z M166.7,28.8l-18.6,3.1l18.6,3.1l2.2-3.1L166.7,28.8z
			 M193.3,34.9l18.6-3.1l-18.6-3.1l-2.2,3.1L193.3,34.9z M157.5,9.3l16.1,22.5l-16.1,22.5L180,38.2l22.5,16.1l-16.1-22.5l16.1-22.5
			L180,25.5L157.5,9.3z M180,42.9l-3.1,2.2l3.1,18.6l3.1-18.6L180,42.9z"/>
		<path class="st1" d="M74.7,60.5l0.9-3.6L61.3,44.6l9.6,16.2L74.7,60.5z M69.7,75.2L57.5,89.5l16.2-9.6l-0.3-3.8L69.7,75.2z
			 M93.9,62.7l12.2-14.3L90,58.1l0.3,3.8L93.9,62.7z M50.1,66.3L77,73.1l2.2,27.6l6.8-26.8l27.6-2.2l-26.8-6.8l-2.2-27.6l-6.8,26.8
			L50.1,66.3z M88.9,77.4L88,81.1l14.3,12.2l-9.6-16.2L88.9,77.4z"/>
		<path class="st1" d="M22.4,156.8l-1.6-3.4L2,153.1l17.7,6.3L22.4,156.8z M27.9,171.3l-0.3,18.8l6.3-17.7l-2.6-2.7L27.9,171.3z
			 M38.7,146.3l0.3-18.8l-6.3,17.7l2.6,2.7L38.7,146.3z M7.1,176.9l25-11.9l19.3,19.9l-11.9-25l19.9-19.3l-25,11.9l-19.3-19.9
			l11.9,25L7.1,176.9z M44.2,160.7l1.6,3.4l18.8,0.3l-17.7-6.3L44.2,160.7z"/>
		<path class="st1" d="M44.9,264.5l-3.4-1.5L27,275l17.6-6.7L44.9,264.5z M58.5,271.9l12,14.5l-6.7-17.6l-3.7-0.3L58.5,271.9z
			 M50.4,245.9l-12-14.5l6.7,17.6l3.7,0.3L50.4,245.9z M46.4,289.7l11.3-25.3l27.6,2.6l-25.3-11.3l2.6-27.6l-11.3,25.3l-27.6-2.6
			L49,262.1L46.4,289.7z M64,253.3l3.4,1.5l14.5-12l-17.6,6.7L64,253.3z"/>
		<path class="st1" d="M126.2,329.9l-3.6,1l-3.6,18.5l9.3-16.3L126.2,329.9z M141.5,327l18.5,3.6l-16.3-9.3l-3.1,2.1L141.5,327z
			 M118.8,312l-18.5-3.6l16.3,9.3l3.1-2.1L118.8,312z M143.3,348.5l-7.3-26.7l23-15.5l-26.7,7.3l-15.5-23l7.3,26.7l-23,15.5
			l26.7-7.3L143.3,348.5z M134,309.2l3.6-1l3.6-18.5l-9.3,16.3L134,309.2z"/>
		<path class="st1" d="M233.8,329.9l-2.1,3.1l9.3,16.3l-3.6-18.5L233.8,329.9z M243.4,317.8l16.3-9.3l-18.5,3.6l-1,3.6L243.4,317.8z
			 M216.4,321.3l-16.3,9.3l18.5-3.6l1-3.6L216.4,321.3z M258.8,332.8l-23-15.5l7.3-26.7l-15.5,23l-26.7-7.3l23,15.5l-7.3,26.7
			l15.5-23L258.8,332.8z M226,309.2l2.1-3.1l-9.3-16.3l3.6,18.5L226,309.2z"/>
		<path class="st1" d="M315.1,264.5l0.3,3.7L333,275l-14.5-12L315.1,264.5z M314.9,249l6.7-17.6l-12,14.5l1.5,3.4L314.9,249z
			 M296.2,268.8l-6.7,17.6l12-14.5l-1.5-3.4L296.2,268.8z M336.3,250.9l-27.6,2.6l-11.3-25.3l2.6,27.6L274.8,267l27.6-2.6l11.3,25.3
			l-2.6-27.6L336.3,250.9z M296,253.3l-0.3-3.7l-17.6-6.7l14.5,12L296,253.3z"/>
		<path class="st1" d="M337.6,156.8l2.7,2.6l17.7-6.3l-18.8,0.3L337.6,156.8z M327.4,145.2l-6.3-17.7l0.3,18.8l3.4,1.6L327.4,145.2z
			 M326.1,172.3l6.3,17.7l-0.3-18.8l-3.4-1.6L326.1,172.3z M344.8,132.6l-19.3,19.9l-25-11.9l19.9,19.3l-11.9,25l19.3-19.9l25,11.9
			L333,157.6L344.8,132.6z M315.8,160.7l-2.7-2.6l-17.7,6.3l18.8-0.3L315.8,160.7z"/>
		<path class="st1" d="M285.3,60.5l3.8,0.3l9.6-16.2l-14.3,12.2L285.3,60.5z M270,58.1l-16.2-9.6l12.2,14.3l3.6-0.9L270,58.1z
			 M286.3,79.8l16.2,9.6l-12.2-14.3l-3.6,0.9L286.3,79.8z M275.5,37.2l-2.2,27.6l-26.8,6.8l27.6,2.2l6.8,26.8l2.2-27.6l26.8-6.8
			l-27.6-2.2L275.5,37.2z M271.1,77.4l-3.8-0.3l-9.6,16.2L272,81.1L271.1,77.4z"/>
	</g>
</g>
</svg>
