<?xml version="1.0" encoding="utf-8"?>
<!-- Generator: Adobe Illustrator 27.8.1, SVG Export Plug-In . SVG Version: 6.00 Build 0)  -->
<svg version="1.1" id="圖層_1" xmlns="http://www.w3.org/2000/svg" xmlns:xlink="http://www.w3.org/1999/xlink" x="0px" y="0px"
	 viewBox="0 0 512 512" style="enable-background:new 0 0 512 512;" xml:space="preserve">
<style type="text/css">
	.st0{opacity:9.000000e-02;}
	.st1{fill:#62718C;}
</style>
<g class="st0">
	<g>
		<g>
			<path class="st1" d="M319.4,193c-6.8-6.4-14.4-11.9-22.5-16.6c-11.7-5.9-25.1-9.3-39.1-9.3c-46.9,0-84.9,37.4-86.4,83.9
				c0,0.8,0,1.7,0,2.5c0,47.8,38.6,86.4,86.4,86.4c14,0,27.2-3.4,38.9-9.1c-1.7,46.1-39.5,82.8-86,82.8c-13.8,0-27-3.2-38.4-9.1
				c17.8,9.3,38.2,14.4,59.7,14.4c71.8,0,129.9-58.2,129.9-129.9C361.6,251,345.3,216.8,319.4,193z M257.6,298.4
				c-24.6,0-44.8-20-44.8-44.8c0-24.6,20-44.8,44.8-44.8c24.6,0,44.8,20,44.8,44.8S282.4,298.4,257.6,298.4z"/>
			<path class="st1" d="M450.2,100.5L293.5,10c-23.1-13.4-51.8-13.4-74.9,0L61.8,100.5c-23.1,13.4-37.4,38-37.4,65v181.1
				c0,26.8,14.2,51.6,37.4,65L218.5,502c23.1,13.4,51.8,13.4,74.9,0l156.7-90.4c23.1-13.4,37.4-38,37.4-65V165.4
				C487.5,138.7,473.3,113.9,450.2,100.5z M401.8,342.7c-46.5,80.5-149.7,108.1-230.2,61.6S63.5,254.6,110,174.2
				c46.5-80.3,149.7-108.1,230.2-61.6C420.4,158.9,448.3,262.3,401.8,342.7z"/>
		</g>
	</g>
</g>
</svg>
